<svg width="100%" style="" viewBox="0 0 32 32" fill="none" xmlns="http://www.w3.org/2000/svg">
<path d="M27.3333 27.3333L29.3333 29.3333" stroke="#0569FF" stroke-width="1.5" stroke-linecap="round" stroke-linejoin="round"/>
<path d="M21.3333 24.6667C21.3333 26.5076 22.8257 28 24.6667 28C25.5888 28 26.4233 27.6256 27.0268 27.0205C27.6281 26.4176 28 25.5856 28 24.6667C28 22.8257 26.5076 21.3333 24.6667 21.3333C22.8257 21.3333 21.3333 22.8257 21.3333 24.6667Z" stroke="#0569FF" stroke-width="1.5" stroke-linecap="round" stroke-linejoin="round"/>
<path d="M5.33334 8V16C5.33334 16 5.33334 20 14.6667 20C24 20 24 16 24 16V8" stroke="#0569FF" stroke-width="1.5" stroke-linecap="round" stroke-linejoin="round"/>
<path d="M14.6667 4C24 4 24 8 24 8C24 8 24 12 14.6667 12C5.33334 12 5.33334 8 5.33334 8C5.33334 8 5.33334 4 14.6667 4Z" stroke="#0569FF" stroke-width="1.5" stroke-linecap="round" stroke-linejoin="round"/>
<path d="M14.6667 28C5.33334 28 5.33334 24 5.33334 24V16" stroke="#0569FF" stroke-width="1.5" stroke-linecap="round" stroke-linejoin="round"/>
</svg>
