<svg width="100%" style="" viewBox="0 0 32 32" fill="none" xmlns="http://www.w3.org/2000/svg">
<path d="M4 9.86667V4.8C4 4.35817 4.35817 4 4.8 4H12.5333C12.9752 4 13.3333 4.35817 13.3333 4.8V9.86667C13.3333 10.3085 12.9752 10.6667 12.5333 10.6667H4.8C4.35817 10.6667 4 10.3085 4 9.86667Z" stroke="#0569FF" stroke-width="1.5"/>
<path d="M18.6667 27.2V22.1333C18.6667 21.6915 19.0248 21.3333 19.4667 21.3333H27.2C27.6419 21.3333 28 21.6915 28 22.1333V27.2C28 27.6419 27.6419 28 27.2 28H19.4667C19.0248 28 18.6667 27.6419 18.6667 27.2Z" stroke="#0569FF" stroke-width="1.5"/>
<path d="M18.6667 16.5333V4.8C18.6667 4.35817 19.0248 4 19.4667 4H27.2C27.6419 4 28 4.35817 28 4.8V16.5333C28 16.9752 27.6419 17.3333 27.2 17.3333H19.4667C19.0248 17.3333 18.6667 16.9752 18.6667 16.5333Z" stroke="#0569FF" stroke-width="1.5"/>
<path d="M4 27.2V15.4667C4 15.0248 4.35817 14.6667 4.8 14.6667H12.5333C12.9752 14.6667 13.3333 15.0248 13.3333 15.4667V27.2C13.3333 27.6419 12.9752 28 12.5333 28H4.8C4.35817 28 4 27.6419 4 27.2Z" stroke="#0569FF" stroke-width="1.5"/>
</svg>
