<svg width="100%" style="" viewBox="0 0 32 32" fill="none" xmlns="http://www.w3.org/2000/svg">
<path d="M16 5.33334V10.6667" stroke="#0569FF" stroke-width="1.5" stroke-linecap="round" stroke-linejoin="round"/>
<path d="M5.33333 10.6667L8.66667 14" stroke="#0569FF" stroke-width="1.5" stroke-linecap="round" stroke-linejoin="round"/>
<path d="M23.3333 14L26.6667 10.6667" stroke="#0569FF" stroke-width="1.5" stroke-linecap="round" stroke-linejoin="round"/>
<path d="M4 22.6667H8" stroke="#0569FF" stroke-width="1.5" stroke-linecap="round" stroke-linejoin="round"/>
<path d="M16 22.6667L17.3333 14.6667" stroke="#0569FF" stroke-width="1.5" stroke-linecap="round" stroke-linejoin="round"/>
<path d="M24 22.6667H28" stroke="#0569FF" stroke-width="1.5" stroke-linecap="round" stroke-linejoin="round"/>
<path d="M11.3333 26.668H5.33333C3.65891 24.4393 2.66667 21.6688 2.66667 18.6667C2.66667 11.3029 8.6362 5.33334 16 5.33334C23.3637 5.33334 29.3333 11.3029 29.3333 18.6667C29.3333 21.6688 28.3411 24.4393 26.6667 26.668L20.6667 26.6667" stroke="#0569FF" stroke-width="1.5" stroke-linecap="round" stroke-linejoin="round"/>
<path d="M16 30.6667C18.2092 30.6667 20 28.8759 20 26.6667C20 24.4575 18.2092 22.6667 16 22.6667C13.7908 22.6667 12 24.4575 12 26.6667C12 28.8759 13.7908 30.6667 16 30.6667Z" stroke="#0569FF" stroke-width="1.5" stroke-linecap="round" stroke-linejoin="round"/>
</svg>
